<svg width="20" height="20" viewBox="0 0 20 20" fill="none" xmlns="http://www.w3.org/2000/svg">
<g id="arrow-right">
<g id="vuesax/bold/arrow-right">
<g id="arrow-right_2">
<path id="Vector" d="M10.0003 1.6665C5.40033 1.6665 1.66699 5.39984 1.66699 9.99984C1.66699 14.5998 5.40033 18.3332 10.0003 18.3332C14.6003 18.3332 18.3337 14.5998 18.3337 9.99984C18.3337 5.39984 14.6003 1.6665 10.0003 1.6665ZM13.3587 10.4415L10.8587 12.9415C10.7337 13.0665 10.5753 13.1248 10.417 13.1248C10.2587 13.1248 10.1003 13.0665 9.97533 12.9415C9.73366 12.6998 9.73366 12.2998 9.97533 12.0582L11.4087 10.6248H7.08366C6.74199 10.6248 6.45866 10.3415 6.45866 9.99984C6.45866 9.65817 6.74199 9.37484 7.08366 9.37484H11.4087L9.97533 7.9415C9.73366 7.69984 9.73366 7.29984 9.97533 7.05817C10.217 6.8165 10.617 6.8165 10.8587 7.05817L13.3587 9.55817C13.6003 9.79984 13.6003 10.1998 13.3587 10.4415Z" fill="#272727"/>
</g>
</g>
</g>
</svg>
