<svg width="36" height="36" viewBox="0 0 36 36" fill="none" xmlns="http://www.w3.org/2000/svg">
<rect x="0.5" y="0.5" width="35" height="35" rx="17.5" stroke="#E9EBED"/>
<path d="M17.9998 28.7501C17.3998 28.7501 16.8098 28.6101 16.3298 28.3401L11.5998 25.6101C9.63977 24.2901 9.50977 24.0501 9.50977 21.9801V17.0201C9.50977 14.9501 9.63977 14.7101 11.5598 13.4201L16.3398 10.6601C17.2898 10.1101 18.7198 10.1101 19.6698 10.6601L24.3998 13.3901C26.3598 14.7101 26.4898 14.9501 26.4898 17.0201V21.9801C26.4898 24.0501 26.3598 24.2901 24.4398 25.5801L19.6598 28.3401C19.1898 28.6201 18.5898 28.7501 17.9998 28.7501ZM17.9998 11.7501C17.6598 11.7501 17.3198 11.8201 17.0798 11.9601L12.3498 14.6901C11.0098 15.6001 11.0098 15.6001 11.0098 17.0201V21.9801C11.0098 23.4001 11.0098 23.4001 12.3998 24.3401L17.0898 27.0401C17.5698 27.3201 18.4398 27.3201 18.9198 27.0401L23.6498 24.3101C24.9898 23.4001 24.9898 23.4001 24.9898 21.9801V17.0201C24.9898 15.6001 24.9898 15.6001 23.5998 14.6601L18.9098 11.9601C18.6798 11.8201 18.3398 11.7501 17.9998 11.7501Z" fill="#272727"/>
<path d="M23.5 14.38C23.09 14.38 22.75 14.04 22.75 13.63V11C22.75 9.42 22.08 8.75 20.5 8.75H15.5C13.92 8.75 13.25 9.42 13.25 11V13.56C13.25 13.97 12.91 14.31 12.5 14.31C12.09 14.31 11.75 13.98 11.75 13.56V11C11.75 8.58 13.08 7.25 15.5 7.25H20.5C22.92 7.25 24.25 8.58 24.25 11V13.63C24.25 14.04 23.91 14.38 23.5 14.38Z" fill="#272727"/>
<path d="M19.6302 23.6301C19.4202 23.6301 19.2002 23.5901 18.9802 23.5001L18.0002 23.1201L17.0202 23.5101C16.4902 23.7201 15.9502 23.6701 15.5502 23.3801C15.1502 23.0901 14.9402 22.5901 14.9702 22.0201L15.0302 20.9701L14.3602 20.1601C14.0002 19.7101 13.8802 19.1901 14.0402 18.7101C14.1902 18.2401 14.6002 17.8801 15.1502 17.7401L16.1702 17.4801L16.7402 16.5901C17.3502 15.6301 18.6602 15.6301 19.2702 16.5901L19.8402 17.4801L20.8602 17.7401C21.4102 17.8801 21.8202 18.2401 21.9702 18.7101C22.1202 19.1801 22.0002 19.7101 21.6402 20.1501L20.9702 20.9601L21.0302 22.0101C21.0602 22.5801 20.8502 23.0701 20.4502 23.3701C20.2102 23.5401 19.9302 23.6301 19.6302 23.6301ZM15.5202 19.2001L16.1902 20.0101C16.4202 20.2801 16.5502 20.7101 16.5302 21.0601L16.4702 22.1101L17.4502 21.7201C17.7802 21.5901 18.2202 21.5901 18.5502 21.7201L19.5302 22.1101L19.4702 21.0601C19.4502 20.7101 19.5802 20.2901 19.8102 20.0101L20.4802 19.2001L19.4602 18.9401C19.1202 18.8501 18.7602 18.5901 18.5702 18.3001L18.0102 17.4201L17.4402 18.3001C17.2502 18.6001 16.8902 18.8601 16.5502 18.9501L15.5202 19.2001Z" fill="#272727"/>
</svg>
