<svg width="36" height="36" viewBox="0 0 36 36" fill="none" xmlns="http://www.w3.org/2000/svg">
<rect x="0.5" y="0.5" width="35" height="35" rx="17.5" stroke="#E9EBED"/>
<path d="M14 11.75C13.59 11.75 13.25 11.41 13.25 11V8C13.25 7.59 13.59 7.25 14 7.25C14.41 7.25 14.75 7.59 14.75 8V11C14.75 11.41 14.41 11.75 14 11.75Z" fill="#272727"/>
<path d="M22 11.75C21.59 11.75 21.25 11.41 21.25 11V8C21.25 7.59 21.59 7.25 22 7.25C22.41 7.25 22.75 7.59 22.75 8V11C22.75 11.41 22.41 11.75 22 11.75Z" fill="#272727"/>
<path d="M14.5 20.4998C14.37 20.4998 14.24 20.4698 14.12 20.4198C13.99 20.3698 13.89 20.2998 13.79 20.2098C13.61 20.0198 13.5 19.7698 13.5 19.4998C13.5 19.3698 13.53 19.2398 13.58 19.1198C13.63 18.9998 13.7 18.8898 13.79 18.7898C13.89 18.6998 13.99 18.6298 14.12 18.5798C14.48 18.4298 14.93 18.5098 15.21 18.7898C15.39 18.9798 15.5 19.2398 15.5 19.4998C15.5 19.5598 15.49 19.6298 15.48 19.6998C15.47 19.7598 15.45 19.8198 15.42 19.8798C15.4 19.9398 15.37 19.9998 15.33 20.0598C15.3 20.1098 15.25 20.1598 15.21 20.2098C15.02 20.3898 14.76 20.4998 14.5 20.4998Z" fill="#272727"/>
<path d="M18 20.4999C17.87 20.4999 17.74 20.4699 17.62 20.4199C17.49 20.3699 17.39 20.2999 17.29 20.2099C17.11 20.0199 17 19.7699 17 19.4999C17 19.3699 17.03 19.2399 17.08 19.1199C17.13 18.9999 17.2 18.8899 17.29 18.7899C17.39 18.6999 17.49 18.6299 17.62 18.5799C17.98 18.4199 18.43 18.5099 18.71 18.7899C18.89 18.9799 19 19.2399 19 19.4999C19 19.5599 18.99 19.6299 18.98 19.6999C18.97 19.7599 18.95 19.8199 18.92 19.8799C18.9 19.9399 18.87 19.9999 18.83 20.0599C18.8 20.1099 18.75 20.1599 18.71 20.2099C18.52 20.3899 18.26 20.4999 18 20.4999Z" fill="#272727"/>
<path d="M21.5 20.4999C21.37 20.4999 21.24 20.4699 21.12 20.4199C20.99 20.3699 20.89 20.2999 20.79 20.2099C20.75 20.1599 20.71 20.1099 20.67 20.0599C20.63 19.9999 20.6 19.9399 20.58 19.8799C20.55 19.8199 20.53 19.7599 20.52 19.6999C20.51 19.6299 20.5 19.5599 20.5 19.4999C20.5 19.2399 20.61 18.9799 20.79 18.7899C20.89 18.6999 20.99 18.6299 21.12 18.5799C21.49 18.4199 21.93 18.5099 22.21 18.7899C22.39 18.9799 22.5 19.2399 22.5 19.4999C22.5 19.5599 22.49 19.6299 22.48 19.6999C22.47 19.7599 22.45 19.8199 22.42 19.8799C22.4 19.9399 22.37 19.9999 22.33 20.0599C22.3 20.1099 22.25 20.1599 22.21 20.2099C22.02 20.3899 21.76 20.4999 21.5 20.4999Z" fill="#272727"/>
<path d="M14.5 24.0002C14.37 24.0002 14.24 23.9702 14.12 23.9202C14 23.8702 13.89 23.8002 13.79 23.7102C13.61 23.5202 13.5 23.2602 13.5 23.0002C13.5 22.8702 13.53 22.7402 13.58 22.6202C13.63 22.4902 13.7 22.3802 13.79 22.2902C14.16 21.9202 14.84 21.9202 15.21 22.2902C15.39 22.4802 15.5 22.7402 15.5 23.0002C15.5 23.2602 15.39 23.5202 15.21 23.7102C15.02 23.8902 14.76 24.0002 14.5 24.0002Z" fill="#272727"/>
<path d="M18 24.0002C17.74 24.0002 17.48 23.8902 17.29 23.7102C17.11 23.5202 17 23.2602 17 23.0002C17 22.8702 17.03 22.7402 17.08 22.6202C17.13 22.4902 17.2 22.3802 17.29 22.2902C17.66 21.9202 18.34 21.9202 18.71 22.2902C18.8 22.3802 18.87 22.4902 18.92 22.6202C18.97 22.7402 19 22.8702 19 23.0002C19 23.2602 18.89 23.5202 18.71 23.7102C18.52 23.8902 18.26 24.0002 18 24.0002Z" fill="#272727"/>
<path d="M21.5 23.9999C21.24 23.9999 20.98 23.8899 20.79 23.7099C20.7 23.6199 20.63 23.5099 20.58 23.3799C20.53 23.2599 20.5 23.1299 20.5 22.9999C20.5 22.8699 20.53 22.7399 20.58 22.6199C20.63 22.4899 20.7 22.3799 20.79 22.2899C21.02 22.0599 21.37 21.9499 21.69 22.0199C21.76 22.0299 21.82 22.0499 21.88 22.0799C21.94 22.0999 22 22.1299 22.06 22.1699C22.11 22.1999 22.16 22.2499 22.21 22.2899C22.39 22.4799 22.5 22.7399 22.5 22.9999C22.5 23.2599 22.39 23.5199 22.21 23.7099C22.02 23.8899 21.76 23.9999 21.5 23.9999Z" fill="#272727"/>
<path d="M26.5 15.8398H9.5C9.09 15.8398 8.75 15.4998 8.75 15.0898C8.75 14.6798 9.09 14.3398 9.5 14.3398H26.5C26.91 14.3398 27.25 14.6798 27.25 15.0898C27.25 15.4998 26.91 15.8398 26.5 15.8398Z" fill="#272727"/>
<path d="M22 28.75H14C10.35 28.75 8.25 26.65 8.25 23V14.5C8.25 10.85 10.35 8.75 14 8.75H22C25.65 8.75 27.75 10.85 27.75 14.5V23C27.75 26.65 25.65 28.75 22 28.75ZM14 10.25C11.14 10.25 9.75 11.64 9.75 14.5V23C9.75 25.86 11.14 27.25 14 27.25H22C24.86 27.25 26.25 25.86 26.25 23V14.5C26.25 11.64 24.86 10.25 22 10.25H14Z" fill="#272727"/>
</svg>
