<svg width="48" height="48" viewBox="0 0 48 48" fill="none" xmlns="http://www.w3.org/2000/svg">
<g id="Sport/dumbbell">
<circle id="Dot" cx="22" cy="40" r="8" fill="#EAD6A4"/>
<g id="Group">
<path id="Rectangle" fill-rule="evenodd" clip-rule="evenodd" d="M27.9561 14.769L33.2304 20.0434L20.0431 33.2308L14.7687 27.9564L27.9561 14.769Z" stroke="#323232" stroke-width="2" stroke-linecap="round" stroke-linejoin="round"/>
<path id="Rectangle_2" fill-rule="evenodd" clip-rule="evenodd" d="M7.51676 22.0218C7.88073 21.6578 8.47084 21.6578 8.8348 22.0218L25.9785 39.1655C26.3425 39.5295 26.3425 40.1196 25.9785 40.4836L23.3408 43.1213C22.9768 43.4853 22.3867 43.4853 22.0227 43.1213L4.87902 25.9776C4.51505 25.6136 4.51505 25.0235 4.87902 24.6596L7.51676 22.0218Z" stroke="#323232" stroke-width="2" stroke-linecap="round" stroke-linejoin="round"/>
<path id="Rectangle_3" fill-rule="evenodd" clip-rule="evenodd" d="M7.51676 29.9354C7.88073 29.5714 8.47084 29.5714 8.8348 29.9354L18.0669 39.1675C18.4309 39.5315 18.4309 40.1216 18.0669 40.4856L15.4292 43.1233C15.0652 43.4873 14.4751 43.4873 14.1112 43.1233L4.87902 33.8912C4.51505 33.5272 4.51505 32.9371 4.87902 32.5731L7.51676 29.9354Z" stroke="#323232" stroke-width="2" stroke-linecap="round" stroke-linejoin="round"/>
<path id="Rectangle_4" fill-rule="evenodd" clip-rule="evenodd" d="M40.4832 25.9801C40.1193 26.3441 39.5292 26.3441 39.1652 25.9801L22.0215 8.83642C21.6575 8.47245 21.6575 7.88234 22.0215 7.51838L24.6592 4.88063C25.0232 4.51667 25.6133 4.51667 25.9773 4.88063L43.121 22.0243C43.485 22.3883 43.485 22.9784 43.121 23.3424L40.4832 25.9801Z" stroke="#323232" stroke-width="2" stroke-linecap="round" stroke-linejoin="round"/>
<path id="Rectangle_5" fill-rule="evenodd" clip-rule="evenodd" d="M40.4842 18.0651C40.1203 18.4291 39.5301 18.4291 39.1662 18.0651L29.934 8.83296C29.5701 8.46899 29.5701 7.87888 29.934 7.51491L32.5718 4.87717C32.9357 4.5132 33.5259 4.5132 33.8898 4.87717L43.122 14.1093C43.4859 14.4733 43.4859 15.0634 43.122 15.4274L40.4842 18.0651Z" stroke="#323232" stroke-width="2" stroke-linecap="round" stroke-linejoin="round"/>
</g>
</g>
</svg>
