<svg width="48" height="48" viewBox="0 0 48 48" fill="none" xmlns="http://www.w3.org/2000/svg">
<g id="Sport/fitness-dumbbell">
<circle id="Dot" cx="35" cy="37" r="8" fill="#EAD6A4"/>
<g id="Group">
<g id="Layer_2">
<path id="Path" d="M31.4277 10C34.4254 10 36.8555 16.268 36.8555 24C36.8555 31.732 34.4255 38 31.4277 38" stroke="#323232" stroke-width="2" stroke-linecap="round" stroke-linejoin="round"/>
<path id="Path_2" d="M39.0723 10C41.7938 10 44 16.268 44 24C44 31.732 41.7938 38 39.0723 38" stroke="#323232" stroke-width="2" stroke-linecap="round" stroke-linejoin="round"/>
<path id="Path_3" d="M39.0722 38H31.4277" stroke="#323232" stroke-width="2" stroke-linecap="round" stroke-linejoin="round"/>
<path id="Path_4" d="M39.0722 10H31.4277" stroke="#323232" stroke-width="2" stroke-linecap="round" stroke-linejoin="round"/>
<path id="Path_5" d="M16.0723 10C18.7938 10 21 16.268 21 24C21 31.732 18.7938 38 16.0723 38" stroke="#323232" stroke-width="2" stroke-linecap="round" stroke-linejoin="round"/>
<path id="Path_6" d="M16.0722 38H8.92773" stroke="#323232" stroke-width="2" stroke-linecap="round" stroke-linejoin="round"/>
<path id="Path_7" d="M16.0722 10H8.92773" stroke="#323232" stroke-width="2" stroke-linecap="round" stroke-linejoin="round"/>
<ellipse id="Oval" cx="8.92776" cy="24" rx="4.92776" ry="14" stroke="#323232" stroke-width="2" stroke-linecap="round" stroke-linejoin="round"/>
<path id="Path_8" d="M20.873 20.8418H29.8939C30.4523 20.8418 30.9878 21.0636 31.3826 21.4584C31.7774 21.8533 31.9992 22.3888 31.9992 22.9472V25.0524C31.9992 25.6108 31.7774 26.1463 31.3826 26.5411C30.9878 26.936 30.4523 27.1578 29.8939 27.1578H20.8731" stroke="#323232" stroke-width="2" stroke-linecap="round" stroke-linejoin="round"/>
<path id="Path_9" d="M26.1445 20.842C26.7003 14.6333 28.8524 10 31.4285 10" stroke="#323232" stroke-width="2" stroke-linecap="round" stroke-linejoin="round"/>
<path id="Path_10" d="M31.4285 38C28.8525 38 26.7004 33.3667 26.1445 27.1577" stroke="#323232" stroke-width="2" stroke-linecap="round" stroke-linejoin="round"/>
</g>
</g>
</g>
</svg>
