<svg width="48" height="48" viewBox="0 0 48 48" fill="none" xmlns="http://www.w3.org/2000/svg">
<g id="Sport/fitness-biceps">
<circle id="Dot" cx="32" cy="40" r="8" fill="#EAD6A4"/>
<g id="Group">
<path id="Path" d="M31.1836 28.7683L31.7158 27.968C33.9586 24.6057 38.174 23.1601 42.0081 24.4385" stroke="#323232" stroke-width="2" stroke-linecap="round" stroke-linejoin="round"/>
<path id="Path_2" d="M20.1286 25.587L22.5296 13.6141L25.1507 14.9246C26.124 15.4105 27.3066 15.0988 27.9139 14.1963L30.2028 10.7609C30.7743 9.90223 30.6613 8.75981 29.9327 8.02974L27.0515 5.14854C25.7156 3.81232 23.5813 3.71515 22.1295 4.92444C15.3124 10.6048 10.2141 18.0735 7.40735 26.4914L6.20685 30.0649C5.60802 31.8702 6.2574 33.8548 7.80752 34.957L10.8708 37.1459C16.7823 41.3694 24.4378 42.2917 31.1833 39.5929L33.3482 43.9227" stroke="#323232" stroke-width="2" stroke-linecap="round" stroke-linejoin="round"/>
<path id="Path_3" d="M31.1828 26.6012C27.2497 23.9799 22.1264 23.9799 18.1934 26.6012" stroke="#323232" stroke-width="2" stroke-linecap="round" stroke-linejoin="round"/>
</g>
</g>
</svg>
