<svg width="28" height="28" viewBox="0 0 28 28" fill="none" xmlns="http://www.w3.org/2000/svg">
<rect x="0.5" y="0.5" width="27" height="27" rx="13.5" stroke="#E9EBED"/>
<g clip-path="url(#clip0_120_9299)">
<path d="M12.4728 13.5268C12.3473 13.4013 12.177 13.3308 11.9995 13.3308C11.8219 13.3308 11.6517 13.4013 11.5261 13.5268C11.4006 13.6524 11.3301 13.8226 11.3301 14.0002C11.3301 14.1777 11.4006 14.348 11.5261 14.4735L13.5261 16.4735C13.5884 16.5353 13.6623 16.5842 13.7435 16.6173C13.8248 16.6505 13.9117 16.6673 13.9995 16.6668C14.0907 16.6639 14.1804 16.6423 14.263 16.6033C14.3456 16.5643 14.4193 16.5088 14.4795 16.4402L19.1461 11.1068C19.2539 10.973 19.3058 10.8028 19.2912 10.6317C19.2765 10.4605 19.1963 10.3016 19.0674 10.1882C18.9384 10.0747 18.7706 10.0154 18.599 10.0226C18.4274 10.0298 18.2651 10.1029 18.1461 10.2268L13.9995 15.0268L12.4728 13.5268Z" fill="#272727"/>
<path d="M19.9992 13.3335C19.8224 13.3335 19.6528 13.4037 19.5278 13.5288C19.4028 13.6538 19.3326 13.8234 19.3326 14.0002C19.3326 15.4147 18.7707 16.7712 17.7705 17.7714C16.7703 18.7716 15.4137 19.3335 13.9992 19.3335C12.9459 19.333 11.9164 19.0207 11.0404 18.4359C10.1644 17.851 9.48117 17.0199 9.07688 16.0473C8.67258 15.0748 8.56532 14.0042 8.76862 12.9708C8.97191 11.9373 9.47667 10.9872 10.2192 10.2402C10.713 9.73975 11.3017 9.34286 11.9507 9.07271C12.5998 8.80255 13.2962 8.66457 13.9992 8.66683C14.4255 8.6695 14.8503 8.71868 15.2659 8.8135C15.3529 8.8404 15.4444 8.8492 15.5349 8.83936C15.6255 8.82952 15.713 8.80125 15.7922 8.75628C15.8713 8.71132 15.9404 8.65061 15.9952 8.57791C16.05 8.50521 16.0894 8.42206 16.1108 8.33357C16.1322 8.24509 16.1353 8.15315 16.1199 8.06343C16.1044 7.97371 16.0708 7.8881 16.0209 7.81189C15.9711 7.73568 15.9063 7.67048 15.8303 7.6203C15.7543 7.57013 15.6689 7.53605 15.5792 7.52016C15.0613 7.39832 14.5313 7.3357 13.9992 7.3335C12.6821 7.34034 11.3965 7.73718 10.3048 8.47393C9.21296 9.21069 8.36387 10.2543 7.86464 11.4732C7.3654 12.692 7.2384 14.0314 7.49965 15.3224C7.7609 16.6134 8.3987 17.798 9.33256 18.7268C10.5704 19.9652 12.2483 20.6627 13.9992 20.6668C15.7673 20.6668 17.463 19.9645 18.7133 18.7142C19.9635 17.464 20.6659 15.7683 20.6659 14.0002C20.6659 13.8234 20.5957 13.6538 20.4706 13.5288C20.3456 13.4037 20.176 13.3335 19.9992 13.3335Z" fill="#272727"/>
</g>
<defs>
<clipPath id="clip0_120_9299">
<rect width="16" height="16" fill="white" transform="translate(6 6)"/>
</clipPath>
</defs>
</svg>
