<svg width="16" height="16" viewBox="0 0 16 16" fill="none" xmlns="http://www.w3.org/2000/svg">
<g id="checkmark-circle-outline 1" clip-path="url(#clip0_120_8041)">
<g id="Layer 2">
<g id="checkmark-circle">
<path id="Vector" d="M6.47378 7.52658C6.34825 7.40104 6.17798 7.33052 6.00045 7.33052C5.82291 7.33052 5.65265 7.40104 5.52712 7.52658C5.40158 7.65212 5.33105 7.82238 5.33105 7.99991C5.33105 8.17745 5.40158 8.34771 5.52712 8.47325L7.52712 10.4732C7.58941 10.535 7.66329 10.5839 7.74451 10.6171C7.82574 10.6503 7.91271 10.6671 8.00045 10.6666C8.09172 10.6637 8.18141 10.6421 8.26398 10.6031C8.34655 10.5641 8.42023 10.5086 8.48045 10.4399L13.1471 5.10658C13.2549 4.9728 13.3068 4.80259 13.2921 4.63144C13.2775 4.46028 13.1973 4.3014 13.0683 4.18792C12.9394 4.07444 12.7716 4.01511 12.6 4.02232C12.4283 4.02952 12.2661 4.10269 12.1471 4.22658L8.00045 9.02658L6.47378 7.52658Z" fill="#EAD6A4"/>
<path id="Vector_2" d="M14.0002 7.33325C13.8234 7.33325 13.6538 7.40349 13.5288 7.52851C13.4038 7.65354 13.3335 7.82311 13.3335 7.99992C13.3335 9.41441 12.7716 10.771 11.7714 11.7712C10.7712 12.7713 9.41469 13.3333 8.0002 13.3333C6.94693 13.3328 5.91738 13.0204 5.04138 12.4356C4.16538 11.8508 3.48215 11.0197 3.07785 10.0471C2.67356 9.07451 2.5663 8.00398 2.76959 6.97051C2.97289 5.93704 3.47764 4.98691 4.2202 4.23992C4.714 3.73951 5.30265 3.34261 5.95171 3.07246C6.60076 2.80231 7.29717 2.66433 8.0002 2.66659C8.4265 2.66925 8.85124 2.71843 9.26687 2.81325C9.35384 2.84016 9.44541 2.84896 9.53592 2.83912C9.62643 2.82928 9.71397 2.801 9.79313 2.75604C9.8723 2.71107 9.94141 2.65037 9.99621 2.57767C10.051 2.50497 10.0904 2.42181 10.1118 2.33333C10.1332 2.24484 10.1363 2.15291 10.1209 2.06319C10.1054 1.97346 10.0717 1.88786 10.0219 1.81165C9.97212 1.73543 9.90723 1.67023 9.83126 1.62006C9.75529 1.56989 9.66985 1.53581 9.5802 1.51992C9.0623 1.39808 8.53224 1.33546 8.0002 1.33325C6.68309 1.34009 5.39752 1.73693 4.30573 2.47369C3.21394 3.21044 2.36485 4.25409 1.86561 5.47294C1.36638 6.69178 1.23937 8.0312 1.50062 9.32216C1.76187 10.6131 2.39967 11.7978 3.33353 12.7266C4.57133 13.9649 6.2493 14.6625 8.0002 14.6666C9.76831 14.6666 11.464 13.9642 12.7142 12.714C13.9645 11.4637 14.6669 9.76803 14.6669 7.99992C14.6669 7.82311 14.5966 7.65354 14.4716 7.52851C14.3466 7.40349 14.177 7.33325 14.0002 7.33325Z" fill="#EAD6A4"/>
</g>
</g>
</g>
<defs>
<clipPath id="clip0_120_8041">
<rect width="16" height="16" fill="white"/>
</clipPath>
</defs>
</svg>
