<svg width="145" height="36" viewBox="0 0 145 36" fill="none" xmlns="http://www.w3.org/2000/svg">
<path d="M25.6659 10.835C24.6658 14.1209 22.865 18.658 19.8785 22.0948L24.0594 25.4224C24.0594 25.4224 15.3424 32.46 6.94267 32.2068C4.51746 32.1402 2.15742 31.4689 0 29.8458C3.33602 33.9148 9.38842 36.6671 16.4201 35.8593C24.0906 34.978 30.2884 28.9806 30.2807 21.3007C30.2766 17.1575 28.4985 13.43 25.6659 10.835Z" fill="url(#paint0_linear_120_7864)"/>
<path d="M24.7408 10.1525C25.2889 9.37537 25.7598 8.52596 26.2047 7.64585C26.907 6.25684 26.9261 4.59603 26.1409 3.25213C26.1015 3.18459 26.0602 3.11776 26.0174 3.05164C25.223 1.82888 23.8916 0.947827 22.365 0.634227C18.2464 -0.211409 13.8923 -0.211409 9.77348 0.634227C8.24656 0.947827 6.91541 1.82888 6.12102 3.05164C5.32946 4.26968 5.12425 5.74724 5.55734 7.10578C5.92077 8.24565 6.29081 9.43559 6.66439 10.665C3.7173 13.2685 1.85742 17.0737 1.85742 21.3153C1.85742 24.6235 2.99092 27.6651 4.88622 30.0799C7.82528 29.8669 11.6145 28.4899 16.4448 24.9808L10.7429 21.6431C10.7429 21.6431 16.9336 19.152 21.9966 13.6241C22.9201 12.6158 24.0248 11.168 24.7408 10.1525ZM11.4449 11.3146L11.2409 13.3596C10.7603 11.7113 10.2814 10.1143 9.80961 8.58452L9.80205 8.55902C9.5515 7.74763 9.30284 6.95441 9.05725 6.18435C8.89998 5.69127 8.97153 5.17624 9.25891 4.73394C9.54914 4.28692 10.0174 3.9778 10.5768 3.8628C14.17 3.12485 17.9679 3.12485 21.5611 3.8628C22.1208 3.9778 22.5886 4.28716 22.8791 4.73394C23.1664 5.17601 23.238 5.69104 23.0807 6.18435C22.8354 6.95418 22.5867 7.74786 22.3359 8.55996C20.4458 7.62814 18.3191 7.10342 16.0689 7.10342C16.054 7.10342 16.0391 7.10342 16.0242 7.10342C13.6498 7.11121 11.6806 8.95173 11.4449 11.3146Z" fill="url(#paint1_linear_120_7864)"/>
<path d="M144.897 19.7999C144.897 20.7866 144.71 21.6466 144.337 22.3799C143.964 23.1133 143.437 23.6799 142.757 24.0799C142.077 24.4799 141.277 24.6799 140.357 24.6799C139.437 24.6799 138.63 24.4799 137.937 24.0799C137.257 23.6799 136.73 23.1133 136.357 22.3799C135.984 21.6466 135.797 20.7866 135.797 19.7999C135.797 18.7999 135.984 17.9399 136.357 17.2199C136.744 16.4866 137.277 15.9199 137.957 15.5199C138.65 15.1199 139.45 14.9199 140.357 14.9199C141.264 14.9199 142.057 15.1199 142.737 15.5199C143.417 15.9199 143.944 16.4866 144.317 17.2199C144.704 17.9399 144.897 18.7999 144.897 19.7999ZM140.357 16.2399C139.464 16.2399 138.75 16.5599 138.217 17.1999C137.697 17.8266 137.437 18.6933 137.437 19.7999C137.437 20.9199 137.69 21.7933 138.197 22.4199C138.717 23.0466 139.437 23.3599 140.357 23.3599C141.264 23.3599 141.97 23.0466 142.477 22.4199C142.997 21.7799 143.257 20.9066 143.257 19.7999C143.257 18.6933 142.997 17.8266 142.477 17.1999C141.97 16.5599 141.264 16.2399 140.357 16.2399Z" fill="white"/>
<path d="M130.053 12.2598C130.053 11.9798 130.153 11.7464 130.353 11.5598C130.553 11.3598 130.799 11.2598 131.093 11.2598C131.399 11.2598 131.646 11.3598 131.833 11.5598C132.019 11.7464 132.113 11.9798 132.113 12.2598C132.113 12.5398 132.019 12.7798 131.833 12.9798C131.646 13.1664 131.399 13.2598 131.093 13.2598C130.799 13.2598 130.553 13.1664 130.353 12.9798C130.153 12.7798 130.053 12.5398 130.053 12.2598ZM130.293 19.1398H131.893V24.3798C131.826 24.4064 131.726 24.4331 131.593 24.4598C131.459 24.4998 131.313 24.5198 131.153 24.5198C130.873 24.5198 130.659 24.4664 130.513 24.3598C130.366 24.2398 130.293 24.0531 130.293 23.7998V19.1398ZM131.893 19.9198H130.293V15.2198C130.359 15.1931 130.459 15.1664 130.593 15.1398C130.739 15.0998 130.893 15.0798 131.053 15.0798C131.333 15.0798 131.539 15.1398 131.673 15.2598C131.819 15.3664 131.893 15.5531 131.893 15.8198V19.9198Z" fill="white"/>
<path d="M124.256 22.8398V16.1198L125.856 16.0998V22.8998C125.856 23.1532 125.796 23.3598 125.676 23.5198C125.569 23.6665 125.396 23.8132 125.156 23.9598C124.889 24.1332 124.509 24.2932 124.016 24.4398C123.522 24.5998 122.956 24.6798 122.316 24.6798C121.356 24.6798 120.509 24.5132 119.776 24.1798C119.042 23.8465 118.469 23.3265 118.056 22.6198C117.642 21.8998 117.436 20.9732 117.436 19.8398C117.436 18.6798 117.636 17.7398 118.036 17.0198C118.449 16.2998 119.002 15.7732 119.696 15.4398C120.389 15.0932 121.149 14.9198 121.976 14.9198C122.496 14.9198 122.989 14.9932 123.456 15.1398C123.922 15.2865 124.289 15.4665 124.556 15.6798V17.1598C124.302 16.9065 123.969 16.6932 123.556 16.5198C123.156 16.3332 122.682 16.2398 122.136 16.2398C121.589 16.2398 121.082 16.3598 120.616 16.5998C120.149 16.8265 119.776 17.2065 119.496 17.7398C119.216 18.2732 119.076 18.9865 119.076 19.8798C119.076 21.0932 119.369 21.9798 119.956 22.5398C120.542 23.0865 121.322 23.3598 122.296 23.3598C122.762 23.3598 123.142 23.3132 123.436 23.2198C123.742 23.1132 124.016 22.9865 124.256 22.8398ZM125.856 16.4998L124.256 16.5198V11.4598C124.322 11.4332 124.422 11.4065 124.556 11.3798C124.702 11.3398 124.849 11.3198 124.996 11.3198C125.289 11.3198 125.502 11.3798 125.636 11.4998C125.782 11.6065 125.856 11.7865 125.856 12.0398V16.4998Z" fill="white"/>
<path d="M105.659 21.0396V19.2196H107.259V20.9596C107.259 21.8129 107.486 22.4263 107.939 22.7996C108.393 23.1729 109.019 23.3596 109.819 23.3596C110.353 23.3596 110.806 23.3063 111.179 23.1996C111.553 23.0796 111.846 22.9596 112.059 22.8396V19.2196H113.659V22.7796C113.659 23.0596 113.619 23.2863 113.539 23.4596C113.473 23.6196 113.299 23.7796 113.019 23.9396C112.726 24.1129 112.306 24.2796 111.759 24.4396C111.213 24.5996 110.559 24.6796 109.799 24.6796C108.919 24.6796 108.166 24.5529 107.539 24.2996C106.926 24.0329 106.459 23.6329 106.139 23.0996C105.819 22.5529 105.659 21.8663 105.659 21.0396ZM113.659 20.2596H112.059V15.2196C112.126 15.1929 112.226 15.1663 112.359 15.1396C112.506 15.0996 112.653 15.0796 112.799 15.0796C113.093 15.0796 113.306 15.1396 113.439 15.2596C113.586 15.3663 113.659 15.5529 113.659 15.8196V20.2596ZM107.259 20.2596H105.659V15.2196C105.726 15.1929 105.826 15.1663 105.959 15.1396C106.106 15.0996 106.259 15.0796 106.419 15.0796C106.699 15.0796 106.906 15.1396 107.039 15.2596C107.186 15.3663 107.259 15.5529 107.259 15.8196V20.2596Z" fill="white"/>
<path d="M97.0352 19.1399H98.6352V21.8999C98.6352 22.4332 98.7885 22.8132 99.0952 23.0399C99.4018 23.2532 99.8218 23.3599 100.355 23.3599C100.582 23.3599 100.835 23.3199 101.115 23.2399C101.395 23.1599 101.628 23.0665 101.815 22.9599C101.895 23.0399 101.968 23.1399 102.035 23.2599C102.102 23.3799 102.135 23.5199 102.135 23.6799C102.135 23.9732 101.962 24.2132 101.615 24.3999C101.268 24.5865 100.788 24.6799 100.175 24.6799C99.2418 24.6799 98.4818 24.4732 97.8952 24.0599C97.3218 23.6465 97.0352 22.9599 97.0352 21.9999V19.1399ZM97.8552 16.6999V15.3799H101.915C101.955 15.4332 101.995 15.5199 102.035 15.6399C102.075 15.7599 102.095 15.8865 102.095 16.0199C102.095 16.2332 102.042 16.3999 101.935 16.5199C101.828 16.6399 101.682 16.6999 101.495 16.6999H97.8552ZM98.6352 19.7399H97.0352V12.4999C97.1018 12.4732 97.2018 12.4465 97.3352 12.4199C97.4818 12.3799 97.6352 12.3599 97.7952 12.3599C98.0752 12.3599 98.2818 12.4199 98.4152 12.5399C98.5618 12.6465 98.6352 12.8265 98.6352 13.0799V19.7399Z" fill="white"/>
<path d="M88.8871 23.32C89.7805 23.32 90.4538 23.12 90.9071 22.72C91.3738 22.3067 91.6071 21.78 91.6071 21.14C91.6071 20.5933 91.4271 20.14 91.0671 19.78C90.7205 19.42 90.1671 19.1333 89.4071 18.92L87.6671 18.4C87.1071 18.2267 86.6205 18.0067 86.2071 17.74C85.7938 17.46 85.4738 17.12 85.2471 16.72C85.0338 16.3067 84.9271 15.8267 84.9271 15.28C84.9271 14.2533 85.3005 13.4533 86.0471 12.88C86.7938 12.2933 87.7871 12 89.0271 12C89.7471 12 90.3871 12.08 90.9471 12.24C91.5205 12.3867 91.9671 12.58 92.2871 12.82C92.6205 13.06 92.7871 13.3133 92.7871 13.58C92.7871 13.7533 92.7405 13.9133 92.6471 14.06C92.5538 14.1933 92.4338 14.3 92.2871 14.38C91.9538 14.1133 91.5005 13.88 90.9271 13.68C90.3671 13.48 89.7538 13.38 89.0871 13.38C88.3138 13.38 87.7005 13.5533 87.2471 13.9C86.7938 14.2333 86.5671 14.6933 86.5671 15.28C86.5671 15.7467 86.7271 16.1267 87.0471 16.42C87.3805 16.7133 87.9138 16.9667 88.6471 17.18L89.8671 17.54C90.9205 17.8333 91.7471 18.26 92.3471 18.82C92.9605 19.38 93.2671 20.1533 93.2671 21.14C93.2671 22.1933 92.8805 23.0467 92.1071 23.7C91.3471 24.3533 90.2738 24.68 88.8871 24.68C88.0738 24.68 87.3605 24.5933 86.7471 24.42C86.1471 24.2333 85.6738 24.0067 85.3271 23.74C84.9938 23.46 84.8271 23.1867 84.8271 22.92C84.8271 22.6933 84.8938 22.5067 85.0271 22.36C85.1738 22.2 85.3405 22.0867 85.5271 22.02C85.8338 22.3133 86.2671 22.6067 86.8271 22.9C87.3871 23.18 88.0738 23.32 88.8871 23.32Z" fill="white"/>
<path d="M66.777 15.2597C66.9236 15.1931 67.1503 15.1197 67.457 15.0397C67.777 14.9464 68.097 14.8997 68.417 14.8997C68.977 14.8997 69.4436 14.9864 69.817 15.1597C70.1903 15.3197 70.417 15.5597 70.497 15.8797C70.6436 16.4264 70.777 16.9397 70.897 17.4197C71.0303 17.8864 71.157 18.3397 71.277 18.7797C71.397 19.2064 71.5103 19.6331 71.617 20.0597C71.737 20.4864 71.8503 20.9331 71.957 21.3997H72.057C72.177 20.5864 72.2836 19.8131 72.377 19.0797C72.4703 18.3331 72.557 17.6064 72.637 16.8997C72.717 16.1797 72.797 15.4731 72.877 14.7797C72.957 14.0731 73.037 13.3597 73.117 12.6397C73.6103 12.3597 74.137 12.2197 74.697 12.2197C75.1903 12.2197 75.617 12.3264 75.977 12.5397C76.337 12.7531 76.517 13.1131 76.517 13.6197C76.517 13.9131 76.4836 14.3331 76.417 14.8797C76.3636 15.4131 76.2836 16.0131 76.177 16.6797C76.0836 17.3464 75.9703 18.0464 75.837 18.7797C75.7036 19.5131 75.5636 20.2131 75.417 20.8797C75.2703 21.5464 75.117 22.1531 74.957 22.6997C74.8103 23.2331 74.6703 23.6464 74.537 23.9397C74.337 24.1264 74.0103 24.2797 73.557 24.3997C73.1036 24.5197 72.637 24.5797 72.157 24.5797C71.5303 24.5797 70.997 24.4997 70.557 24.3397C70.1303 24.1664 69.8703 23.9264 69.777 23.6197C69.6036 23.0864 69.417 22.4531 69.217 21.7197C69.017 20.9864 68.8036 20.1797 68.577 19.2997C68.3903 20.1664 68.197 21.0131 67.997 21.8397C67.797 22.6664 67.617 23.3664 67.457 23.9397C67.257 24.1264 66.957 24.2797 66.557 24.3997C66.157 24.5197 65.717 24.5797 65.237 24.5797C64.637 24.5797 64.0903 24.4997 63.597 24.3397C63.117 24.1664 62.8036 23.9264 62.657 23.6197C62.537 23.3797 62.4036 23.0264 62.257 22.5597C62.1236 22.0797 61.9836 21.5397 61.837 20.9397C61.6903 20.3264 61.537 19.6664 61.377 18.9597C61.2303 18.2531 61.0903 17.5464 60.957 16.8397C60.837 16.1331 60.7236 15.4464 60.617 14.7797C60.5103 14.0997 60.4303 13.4797 60.377 12.9197C60.5636 12.7464 60.8236 12.5864 61.157 12.4397C61.4903 12.2931 61.8503 12.2197 62.237 12.2197C62.7436 12.2197 63.157 12.3331 63.477 12.5597C63.8103 12.7731 64.017 13.1397 64.097 13.6597C64.3103 15.0197 64.4836 16.1531 64.617 17.0597C64.7636 17.9664 64.877 18.7131 64.957 19.2997C65.0503 19.8731 65.117 20.3197 65.157 20.6397C65.197 20.9597 65.237 21.2131 65.277 21.3997H65.377C65.497 20.8664 65.6103 20.3731 65.717 19.9197C65.8236 19.4664 65.9303 19.0131 66.037 18.5597C66.157 18.0931 66.277 17.5997 66.397 17.0797C66.517 16.5464 66.6436 15.9397 66.777 15.2597Z" fill="white"/>
<path d="M57.6157 12.2998C57.709 12.4465 57.789 12.6465 57.8557 12.8998C57.9357 13.1398 57.9757 13.3931 57.9757 13.6598C57.9757 14.1798 57.8624 14.5531 57.6357 14.7798C57.4224 14.9931 57.129 15.0998 56.7557 15.0998H52.5557V17.3598H56.9357C57.0424 17.5065 57.129 17.6998 57.1957 17.9398C57.2757 18.1798 57.3157 18.4331 57.3157 18.6998C57.3157 19.2065 57.2024 19.5731 56.9757 19.7998C56.7624 20.0131 56.469 20.1198 56.0957 20.1198H52.5957V24.3398C52.449 24.3798 52.2157 24.4198 51.8957 24.4598C51.589 24.4998 51.2824 24.5198 50.9757 24.5198C50.669 24.5198 50.3957 24.4931 50.1557 24.4398C49.929 24.3998 49.7357 24.3198 49.5757 24.1998C49.4157 24.0798 49.2957 23.9131 49.2157 23.6998C49.1357 23.4865 49.0957 23.2065 49.0957 22.8598V14.1598C49.0957 13.5865 49.2624 13.1331 49.5957 12.7998C49.929 12.4665 50.3824 12.2998 50.9557 12.2998H57.6157Z" fill="white"/>
<path d="M40.2203 19.6C39.6336 19.4 39.1003 19.2 38.6203 19C38.1403 18.7866 37.7269 18.5333 37.3803 18.24C37.0336 17.9466 36.7603 17.6 36.5603 17.2C36.3736 16.7866 36.2803 16.2866 36.2803 15.7C36.2803 14.5666 36.7136 13.66 37.5803 12.98C38.4603 12.3 39.6869 11.96 41.2603 11.96C41.8336 11.96 42.3669 12 42.8603 12.08C43.3536 12.16 43.7736 12.2866 44.1203 12.46C44.4803 12.62 44.7603 12.8333 44.9603 13.1C45.1603 13.3533 45.2603 13.6533 45.2603 14C45.2603 14.3466 45.1803 14.6466 45.0203 14.9C44.8603 15.14 44.6669 15.3466 44.4403 15.52C44.1469 15.3333 43.7536 15.1733 43.2603 15.04C42.7669 14.8933 42.2269 14.82 41.6403 14.82C41.0403 14.82 40.6003 14.9066 40.3203 15.08C40.0403 15.24 39.9003 15.4466 39.9003 15.7C39.9003 15.9 39.9869 16.0666 40.1603 16.2C40.3336 16.32 40.5936 16.4333 40.9403 16.54L42.0003 16.88C43.2536 17.28 44.2136 17.7933 44.8803 18.42C45.5603 19.0333 45.9003 19.8733 45.9003 20.94C45.9003 22.0733 45.4536 22.9933 44.5603 23.7C43.6669 24.3933 42.3536 24.74 40.6203 24.74C40.0069 24.74 39.4336 24.6866 38.9003 24.58C38.3803 24.4866 37.9203 24.3466 37.5203 24.16C37.1336 23.96 36.8269 23.72 36.6003 23.44C36.3869 23.1466 36.2803 22.8133 36.2803 22.44C36.2803 22.0533 36.3936 21.7266 36.6203 21.46C36.8469 21.18 37.0936 20.9666 37.3603 20.82C37.7336 21.1133 38.1869 21.3666 38.7203 21.58C39.2669 21.7933 39.8603 21.9 40.5003 21.9C41.1536 21.9 41.6136 21.8 41.8803 21.6C42.1469 21.4 42.2803 21.1666 42.2803 20.9C42.2803 20.6333 42.1736 20.4333 41.9603 20.3C41.7469 20.1533 41.4469 20.0133 41.0603 19.88L40.2203 19.6Z" fill="white"/>
<defs>
<linearGradient id="paint0_linear_120_7864" x1="27.6227" y1="15.9807" x2="6.19088" y2="37.4126" gradientUnits="userSpaceOnUse">
<stop stop-color="#EAD6A4"/>
<stop offset="1" stop-color="#FF4747"/>
</linearGradient>
<linearGradient id="paint1_linear_120_7864" x1="2.64341" y1="3.67837" x2="18.5546" y2="19.5896" gradientUnits="userSpaceOnUse">
<stop stop-color="#C7C7CC"/>
<stop offset="1" stop-color="white"/>
</linearGradient>
</defs>
</svg>
