<svg width="145" height="36" viewBox="0 0 145 36" fill="none" xmlns="http://www.w3.org/2000/svg">
<path d="M25.6659 10.835C24.6658 14.1209 22.865 18.658 19.8785 22.0948L24.0594 25.4224C24.0594 25.4224 15.3424 32.46 6.94267 32.2068C4.51746 32.1402 2.15742 31.4689 0 29.8458C3.33602 33.9148 9.38842 36.6671 16.4201 35.8593C24.0906 34.978 30.2884 28.9806 30.2807 21.3007C30.2766 17.1575 28.4985 13.43 25.6659 10.835Z" fill="url(#paint0_linear_120_8285)"/>
<path d="M24.7408 10.1525C25.2889 9.37537 25.7598 8.52596 26.2047 7.64585C26.907 6.25684 26.9261 4.59603 26.1409 3.25213C26.1015 3.18459 26.0602 3.11776 26.0174 3.05164C25.223 1.82888 23.8916 0.947827 22.365 0.634227C18.2464 -0.211409 13.8923 -0.211409 9.77348 0.634227C8.24656 0.947827 6.91541 1.82888 6.12102 3.05164C5.32946 4.26968 5.12425 5.74724 5.55734 7.10578C5.92077 8.24565 6.29081 9.43559 6.66439 10.665C3.7173 13.2685 1.85742 17.0737 1.85742 21.3153C1.85742 24.6235 2.99092 27.6651 4.88622 30.0799C7.82528 29.8669 11.6145 28.4899 16.4448 24.9808L10.7429 21.6431C10.7429 21.6431 16.9336 19.152 21.9966 13.6241C22.9201 12.6158 24.0248 11.168 24.7408 10.1525ZM11.4449 11.3146L11.2409 13.3596C10.7603 11.7113 10.2814 10.1143 9.80961 8.58452L9.80205 8.55902C9.5515 7.74763 9.30284 6.95441 9.05725 6.18435C8.89998 5.69127 8.97153 5.17624 9.25891 4.73394C9.54914 4.28692 10.0174 3.9778 10.5768 3.8628C14.17 3.12485 17.9679 3.12485 21.5611 3.8628C22.1208 3.9778 22.5886 4.28716 22.8791 4.73394C23.1664 5.17601 23.238 5.69104 23.0807 6.18435C22.8354 6.95418 22.5867 7.74786 22.3359 8.55996C20.4458 7.62814 18.3191 7.10342 16.0689 7.10342C16.054 7.10342 16.0391 7.10342 16.0242 7.10342C13.6498 7.11121 11.6806 8.95173 11.4449 11.3146Z" fill="url(#paint1_linear_120_8285)"/>
<path d="M144.898 19.7999C144.898 20.7866 144.711 21.6466 144.338 22.3799C143.965 23.1133 143.438 23.6799 142.758 24.0799C142.078 24.4799 141.278 24.6799 140.358 24.6799C139.438 24.6799 138.631 24.4799 137.938 24.0799C137.258 23.6799 136.731 23.1133 136.358 22.3799C135.985 21.6466 135.798 20.7866 135.798 19.7999C135.798 18.7999 135.985 17.9399 136.358 17.2199C136.745 16.4866 137.278 15.9199 137.958 15.5199C138.651 15.1199 139.451 14.9199 140.358 14.9199C141.265 14.9199 142.058 15.1199 142.738 15.5199C143.418 15.9199 143.945 16.4866 144.318 17.2199C144.705 17.9399 144.898 18.7999 144.898 19.7999ZM140.358 16.2399C139.465 16.2399 138.751 16.5599 138.218 17.1999C137.698 17.8266 137.438 18.6933 137.438 19.7999C137.438 20.9199 137.691 21.7933 138.198 22.4199C138.718 23.0466 139.438 23.3599 140.358 23.3599C141.265 23.3599 141.971 23.0466 142.478 22.4199C142.998 21.7799 143.258 20.9066 143.258 19.7999C143.258 18.6933 142.998 17.8266 142.478 17.1999C141.971 16.5599 141.265 16.2399 140.358 16.2399Z" fill="#272727"/>
<path d="M130.054 12.2598C130.054 11.9798 130.154 11.7464 130.354 11.5598C130.554 11.3598 130.8 11.2598 131.094 11.2598C131.4 11.2598 131.647 11.3598 131.834 11.5598C132.02 11.7464 132.114 11.9798 132.114 12.2598C132.114 12.5398 132.02 12.7798 131.834 12.9798C131.647 13.1664 131.4 13.2598 131.094 13.2598C130.8 13.2598 130.554 13.1664 130.354 12.9798C130.154 12.7798 130.054 12.5398 130.054 12.2598ZM130.294 19.1398H131.894V24.3798C131.827 24.4064 131.727 24.4331 131.594 24.4598C131.46 24.4998 131.314 24.5198 131.154 24.5198C130.874 24.5198 130.66 24.4664 130.514 24.3598C130.367 24.2398 130.294 24.0531 130.294 23.7998V19.1398ZM131.894 19.9198H130.294V15.2198C130.36 15.1931 130.46 15.1664 130.594 15.1398C130.74 15.0998 130.894 15.0798 131.054 15.0798C131.334 15.0798 131.54 15.1398 131.674 15.2598C131.82 15.3664 131.894 15.5531 131.894 15.8198V19.9198Z" fill="#272727"/>
<path d="M124.257 22.8398V16.1198L125.857 16.0998V22.8998C125.857 23.1532 125.797 23.3598 125.677 23.5198C125.57 23.6665 125.397 23.8132 125.157 23.9598C124.89 24.1332 124.51 24.2932 124.017 24.4398C123.523 24.5998 122.957 24.6798 122.317 24.6798C121.357 24.6798 120.51 24.5132 119.777 24.1798C119.043 23.8465 118.47 23.3265 118.057 22.6198C117.643 21.8998 117.437 20.9732 117.437 19.8398C117.437 18.6798 117.637 17.7398 118.037 17.0198C118.45 16.2998 119.003 15.7732 119.697 15.4398C120.39 15.0932 121.15 14.9198 121.977 14.9198C122.497 14.9198 122.99 14.9932 123.457 15.1398C123.923 15.2865 124.29 15.4665 124.557 15.6798V17.1598C124.303 16.9065 123.97 16.6932 123.557 16.5198C123.157 16.3332 122.683 16.2398 122.137 16.2398C121.59 16.2398 121.083 16.3598 120.617 16.5998C120.15 16.8265 119.777 17.2065 119.497 17.7398C119.217 18.2732 119.077 18.9865 119.077 19.8798C119.077 21.0932 119.37 21.9798 119.957 22.5398C120.543 23.0865 121.323 23.3598 122.297 23.3598C122.763 23.3598 123.143 23.3132 123.437 23.2198C123.743 23.1132 124.017 22.9865 124.257 22.8398ZM125.857 16.4998L124.257 16.5198V11.4598C124.323 11.4332 124.423 11.4065 124.557 11.3798C124.703 11.3398 124.85 11.3198 124.997 11.3198C125.29 11.3198 125.503 11.3798 125.637 11.4998C125.783 11.6065 125.857 11.7865 125.857 12.0398V16.4998Z" fill="#272727"/>
<path d="M105.66 21.0396V19.2196H107.26V20.9596C107.26 21.8129 107.487 22.4263 107.94 22.7996C108.393 23.1729 109.02 23.3596 109.82 23.3596C110.353 23.3596 110.807 23.3063 111.18 23.1996C111.553 23.0796 111.847 22.9596 112.06 22.8396V19.2196H113.66V22.7796C113.66 23.0596 113.62 23.2863 113.54 23.4596C113.473 23.6196 113.3 23.7796 113.02 23.9396C112.727 24.1129 112.307 24.2796 111.76 24.4396C111.213 24.5996 110.56 24.6796 109.8 24.6796C108.92 24.6796 108.167 24.5529 107.54 24.2996C106.927 24.0329 106.46 23.6329 106.14 23.0996C105.82 22.5529 105.66 21.8663 105.66 21.0396ZM113.66 20.2596H112.06V15.2196C112.127 15.1929 112.227 15.1663 112.36 15.1396C112.507 15.0996 112.653 15.0796 112.8 15.0796C113.093 15.0796 113.307 15.1396 113.44 15.2596C113.587 15.3663 113.66 15.5529 113.66 15.8196V20.2596ZM107.26 20.2596H105.66V15.2196C105.727 15.1929 105.827 15.1663 105.96 15.1396C106.107 15.0996 106.26 15.0796 106.42 15.0796C106.7 15.0796 106.907 15.1396 107.04 15.2596C107.187 15.3663 107.26 15.5529 107.26 15.8196V20.2596Z" fill="#272727"/>
<path d="M97.0361 19.1399H98.6361V21.8999C98.6361 22.4332 98.7895 22.8132 99.0961 23.0399C99.4028 23.2532 99.8228 23.3599 100.356 23.3599C100.583 23.3599 100.836 23.3199 101.116 23.2399C101.396 23.1599 101.629 23.0665 101.816 22.9599C101.896 23.0399 101.969 23.1399 102.036 23.2599C102.103 23.3799 102.136 23.5199 102.136 23.6799C102.136 23.9732 101.963 24.2132 101.616 24.3999C101.269 24.5865 100.789 24.6799 100.176 24.6799C99.2428 24.6799 98.4828 24.4732 97.8961 24.0599C97.3228 23.6465 97.0361 22.9599 97.0361 21.9999V19.1399ZM97.8561 16.6999V15.3799H101.916C101.956 15.4332 101.996 15.5199 102.036 15.6399C102.076 15.7599 102.096 15.8865 102.096 16.0199C102.096 16.2332 102.043 16.3999 101.936 16.5199C101.829 16.6399 101.683 16.6999 101.496 16.6999H97.8561ZM98.6361 19.7399H97.0361V12.4999C97.1028 12.4732 97.2028 12.4465 97.3361 12.4199C97.4828 12.3799 97.6361 12.3599 97.7961 12.3599C98.0761 12.3599 98.2828 12.4199 98.4161 12.5399C98.5628 12.6465 98.6361 12.8265 98.6361 13.0799V19.7399Z" fill="#272727"/>
<path d="M88.8881 23.32C89.7815 23.32 90.4548 23.12 90.9081 22.72C91.3748 22.3067 91.6081 21.78 91.6081 21.14C91.6081 20.5933 91.4281 20.14 91.0681 19.78C90.7215 19.42 90.1681 19.1333 89.4081 18.92L87.6681 18.4C87.1081 18.2267 86.6215 18.0067 86.2081 17.74C85.7948 17.46 85.4748 17.12 85.2481 16.72C85.0348 16.3067 84.9281 15.8267 84.9281 15.28C84.9281 14.2533 85.3015 13.4533 86.0481 12.88C86.7948 12.2933 87.7881 12 89.0281 12C89.7481 12 90.3881 12.08 90.9481 12.24C91.5215 12.3867 91.9681 12.58 92.2881 12.82C92.6215 13.06 92.7881 13.3133 92.7881 13.58C92.7881 13.7533 92.7415 13.9133 92.6481 14.06C92.5548 14.1933 92.4348 14.3 92.2881 14.38C91.9548 14.1133 91.5015 13.88 90.9281 13.68C90.3681 13.48 89.7548 13.38 89.0881 13.38C88.3148 13.38 87.7015 13.5533 87.2481 13.9C86.7948 14.2333 86.5681 14.6933 86.5681 15.28C86.5681 15.7467 86.7281 16.1267 87.0481 16.42C87.3815 16.7133 87.9148 16.9667 88.6481 17.18L89.8681 17.54C90.9215 17.8333 91.7481 18.26 92.3481 18.82C92.9615 19.38 93.2681 20.1533 93.2681 21.14C93.2681 22.1933 92.8815 23.0467 92.1081 23.7C91.3481 24.3533 90.2748 24.68 88.8881 24.68C88.0748 24.68 87.3615 24.5933 86.7481 24.42C86.1481 24.2333 85.6748 24.0067 85.3281 23.74C84.9948 23.46 84.8281 23.1867 84.8281 22.92C84.8281 22.6933 84.8948 22.5067 85.0281 22.36C85.1748 22.2 85.3415 22.0867 85.5281 22.02C85.8348 22.3133 86.2681 22.6067 86.8281 22.9C87.3881 23.18 88.0748 23.32 88.8881 23.32Z" fill="#272727"/>
<path d="M66.7779 15.2597C66.9246 15.1931 67.1513 15.1197 67.4579 15.0397C67.7779 14.9464 68.0979 14.8997 68.4179 14.8997C68.9779 14.8997 69.4446 14.9864 69.8179 15.1597C70.1913 15.3197 70.4179 15.5597 70.4979 15.8797C70.6446 16.4264 70.7779 16.9397 70.8979 17.4197C71.0313 17.8864 71.1579 18.3397 71.2779 18.7797C71.3979 19.2064 71.5113 19.6331 71.6179 20.0597C71.7379 20.4864 71.8513 20.9331 71.9579 21.3997H72.0579C72.1779 20.5864 72.2846 19.8131 72.3779 19.0797C72.4713 18.3331 72.5579 17.6064 72.6379 16.8997C72.7179 16.1797 72.7979 15.4731 72.8779 14.7797C72.9579 14.0731 73.0379 13.3597 73.1179 12.6397C73.6113 12.3597 74.1379 12.2197 74.6979 12.2197C75.1913 12.2197 75.6179 12.3264 75.9779 12.5397C76.3379 12.7531 76.5179 13.1131 76.5179 13.6197C76.5179 13.9131 76.4846 14.3331 76.4179 14.8797C76.3646 15.4131 76.2846 16.0131 76.1779 16.6797C76.0846 17.3464 75.9713 18.0464 75.8379 18.7797C75.7046 19.5131 75.5646 20.2131 75.4179 20.8797C75.2713 21.5464 75.1179 22.1531 74.9579 22.6997C74.8113 23.2331 74.6713 23.6464 74.5379 23.9397C74.3379 24.1264 74.0113 24.2797 73.5579 24.3997C73.1046 24.5197 72.6379 24.5797 72.1579 24.5797C71.5313 24.5797 70.9979 24.4997 70.5579 24.3397C70.1313 24.1664 69.8713 23.9264 69.7779 23.6197C69.6046 23.0864 69.4179 22.4531 69.2179 21.7197C69.0179 20.9864 68.8046 20.1797 68.5779 19.2997C68.3913 20.1664 68.1979 21.0131 67.9979 21.8397C67.7979 22.6664 67.6179 23.3664 67.4579 23.9397C67.2579 24.1264 66.9579 24.2797 66.5579 24.3997C66.1579 24.5197 65.7179 24.5797 65.2379 24.5797C64.6379 24.5797 64.0913 24.4997 63.5979 24.3397C63.1179 24.1664 62.8046 23.9264 62.6579 23.6197C62.5379 23.3797 62.4046 23.0264 62.2579 22.5597C62.1246 22.0797 61.9846 21.5397 61.8379 20.9397C61.6913 20.3264 61.5379 19.6664 61.3779 18.9597C61.2313 18.2531 61.0913 17.5464 60.9579 16.8397C60.8379 16.1331 60.7246 15.4464 60.6179 14.7797C60.5113 14.0997 60.4313 13.4797 60.3779 12.9197C60.5646 12.7464 60.8246 12.5864 61.1579 12.4397C61.4913 12.2931 61.8513 12.2197 62.2379 12.2197C62.7446 12.2197 63.1579 12.3331 63.4779 12.5597C63.8113 12.7731 64.0179 13.1397 64.0979 13.6597C64.3113 15.0197 64.4846 16.1531 64.6179 17.0597C64.7646 17.9664 64.8779 18.7131 64.9579 19.2997C65.0513 19.8731 65.1179 20.3197 65.1579 20.6397C65.1979 20.9597 65.2379 21.2131 65.2779 21.3997H65.3779C65.4979 20.8664 65.6113 20.3731 65.7179 19.9197C65.8246 19.4664 65.9313 19.0131 66.0379 18.5597C66.1579 18.0931 66.2779 17.5997 66.3979 17.0797C66.5179 16.5464 66.6446 15.9397 66.7779 15.2597Z" fill="#272727"/>
<path d="M57.6167 12.2998C57.71 12.4465 57.79 12.6465 57.8567 12.8998C57.9367 13.1398 57.9767 13.3931 57.9767 13.6598C57.9767 14.1798 57.8633 14.5531 57.6367 14.7798C57.4233 14.9931 57.13 15.0998 56.7567 15.0998H52.5567V17.3598H56.9367C57.0433 17.5065 57.13 17.6998 57.1967 17.9398C57.2767 18.1798 57.3167 18.4331 57.3167 18.6998C57.3167 19.2065 57.2033 19.5731 56.9767 19.7998C56.7633 20.0131 56.47 20.1198 56.0967 20.1198H52.5967V24.3398C52.45 24.3798 52.2167 24.4198 51.8967 24.4598C51.59 24.4998 51.2833 24.5198 50.9767 24.5198C50.67 24.5198 50.3967 24.4931 50.1567 24.4398C49.93 24.3998 49.7367 24.3198 49.5767 24.1998C49.4167 24.0798 49.2967 23.9131 49.2167 23.6998C49.1367 23.4865 49.0967 23.2065 49.0967 22.8598V14.1598C49.0967 13.5865 49.2633 13.1331 49.5967 12.7998C49.93 12.4665 50.3833 12.2998 50.9567 12.2998H57.6167Z" fill="#272727"/>
<path d="M40.2213 19.6C39.6346 19.4 39.1013 19.2 38.6213 19C38.1413 18.7866 37.7279 18.5333 37.3813 18.24C37.0346 17.9466 36.7613 17.6 36.5612 17.2C36.3746 16.7866 36.2812 16.2866 36.2812 15.7C36.2812 14.5666 36.7146 13.66 37.5813 12.98C38.4613 12.3 39.6879 11.96 41.2613 11.96C41.8346 11.96 42.3679 12 42.8612 12.08C43.3546 12.16 43.7746 12.2866 44.1213 12.46C44.4813 12.62 44.7613 12.8333 44.9613 13.1C45.1613 13.3533 45.2613 13.6533 45.2613 14C45.2613 14.3466 45.1813 14.6466 45.0213 14.9C44.8613 15.14 44.6679 15.3466 44.4412 15.52C44.1479 15.3333 43.7546 15.1733 43.2613 15.04C42.7679 14.8933 42.2279 14.82 41.6413 14.82C41.0413 14.82 40.6012 14.9066 40.3212 15.08C40.0412 15.24 39.9012 15.4466 39.9012 15.7C39.9012 15.9 39.9879 16.0666 40.1613 16.2C40.3346 16.32 40.5946 16.4333 40.9412 16.54L42.0012 16.88C43.2546 17.28 44.2146 17.7933 44.8813 18.42C45.5613 19.0333 45.9012 19.8733 45.9012 20.94C45.9012 22.0733 45.4546 22.9933 44.5613 23.7C43.6679 24.3933 42.3546 24.74 40.6212 24.74C40.0079 24.74 39.4346 24.6866 38.9012 24.58C38.3812 24.4866 37.9213 24.3466 37.5213 24.16C37.1346 23.96 36.8279 23.72 36.6012 23.44C36.3879 23.1466 36.2812 22.8133 36.2812 22.44C36.2812 22.0533 36.3946 21.7266 36.6213 21.46C36.8479 21.18 37.0946 20.9666 37.3613 20.82C37.7346 21.1133 38.1879 21.3666 38.7213 21.58C39.2679 21.7933 39.8613 21.9 40.5013 21.9C41.1546 21.9 41.6146 21.8 41.8813 21.6C42.1479 21.4 42.2812 21.1666 42.2812 20.9C42.2812 20.6333 42.1746 20.4333 41.9612 20.3C41.7479 20.1533 41.4479 20.0133 41.0613 19.88L40.2213 19.6Z" fill="#272727"/>
<defs>
<linearGradient id="paint0_linear_120_8285" x1="27.6227" y1="15.9807" x2="6.19088" y2="37.4126" gradientUnits="userSpaceOnUse">
<stop stop-color="#EAD6A4"/>
<stop offset="1" stop-color="#FF4747"/>
</linearGradient>
<linearGradient id="paint1_linear_120_8285" x1="2.64341" y1="3.67837" x2="18.5546" y2="19.5896" gradientUnits="userSpaceOnUse">
<stop stop-color="#C7C7CC"/>
<stop offset="1" stop-color="#272727"/>
</linearGradient>
</defs>
</svg>
