<svg width="48" height="48" viewBox="0 0 48 48" fill="none" xmlns="http://www.w3.org/2000/svg">
<g id="Sport/slim-waist">
<circle id="Dot" cx="35" cy="40" r="8" fill="#EAD6A4"/>
<g id="Group">
<path id="Path" d="M26.2229 36.2275C24.8005 37.6521 24.0011 39.5826 24 41.5958V44.0088" stroke="#323232" stroke-width="2" stroke-linecap="round" stroke-linejoin="round"/>
<path id="Path_2" d="M21.7773 36.2275C23.1998 37.6521 23.9992 39.5826 24.0003 41.5958V44.0088" stroke="#323232" stroke-width="2" stroke-linecap="round" stroke-linejoin="round"/>
<path id="Path_3" d="M34.5048 24.2225C27.7559 26.8895 20.2451 26.8895 13.4961 24.2225" stroke="#323232" stroke-width="2" stroke-linecap="round" stroke-linejoin="round"/>
<path id="Path_4" d="M38.0059 16.9975H44.0084" stroke="#323232" stroke-width="2" stroke-linecap="round" stroke-linejoin="round"/>
<path id="Path_5" d="M41.0071 19.9986L38.0059 16.9973L41.0071 13.9961" stroke="#323232" stroke-width="2" stroke-linecap="round" stroke-linejoin="round"/>
<path id="Path_6" d="M9.99469 16.9975H3.99219" stroke="#323232" stroke-width="2" stroke-linecap="round" stroke-linejoin="round"/>
<path id="Path_7" d="M6.99316 13.9961L9.99441 16.9973L6.99316 19.9986" stroke="#323232" stroke-width="2" stroke-linecap="round" stroke-linejoin="round"/>
<path id="Path_8" d="M35.1166 3.9917L33.9161 7.30908C31.8474 12.9976 32.2091 19.2865 34.9165 24.7003V24.7003C37.861 30.5912 38.0173 37.49 35.3427 43.5082L35.1226 44.0064" stroke="#323232" stroke-width="2" stroke-linecap="round" stroke-linejoin="round"/>
<path id="Path_9" d="M12.8837 3.9917L14.0842 7.30908C16.1528 12.9976 15.7911 19.2865 13.0837 24.7003V24.7003C10.1392 30.5912 9.98292 37.49 12.6576 43.5082L12.8777 44.0064" stroke="#323232" stroke-width="2" stroke-linecap="round" stroke-linejoin="round"/>
<path id="Path_10" d="M15.0186 10.6606H32.982" stroke="#323232" stroke-width="2" stroke-linecap="round" stroke-linejoin="round"/>
</g>
</g>
</svg>
