<svg width="48" height="49" viewBox="0 0 48 49" fill="none" xmlns="http://www.w3.org/2000/svg">
<g id="Holidays/star-shining">
<circle id="Dot" cx="31" cy="35.5" r="8" fill="#EAD6A4"/>
<g id="Group">
<path id="Path" fill-rule="evenodd" clip-rule="evenodd" d="M22.1601 15.2771C22.5056 14.5767 23.2188 14.1333 23.9998 14.1333C24.7807 14.1333 25.494 14.5767 25.8395 15.2771L27.3402 18.3193C27.6389 18.9249 28.2166 19.3447 28.8848 19.4418L32.2413 19.9297C33.0138 20.042 33.6557 20.583 33.8971 21.3255C34.1384 22.068 33.9374 22.883 33.3785 23.4282L30.9492 25.7977C30.466 26.2689 30.2456 26.9478 30.3597 27.613L30.9331 30.9554C31.065 31.7249 30.7487 32.5027 30.1171 32.9616C29.4855 33.4206 28.6481 33.4812 27.9569 33.118L24.9541 31.5399C24.3567 31.2259 23.6429 31.2259 23.0454 31.5399L20.0426 33.1181C19.3515 33.4814 18.5141 33.4208 17.8824 32.9618C17.2508 32.5028 16.9345 31.725 17.0665 30.9555L17.6398 27.613C17.7539 26.9478 17.5335 26.2689 17.0503 25.7977L14.621 23.4282C14.0622 22.883 13.8611 22.068 14.1025 21.3255C14.3439 20.583 14.9857 20.042 15.7583 19.9297L19.1148 19.4418C19.783 19.3447 20.3607 18.9249 20.6594 18.3193L22.1601 15.2771Z" stroke="#323232" stroke-width="2" stroke-linecap="round" stroke-linejoin="round"/>
<path id="Path_2" d="M42.0659 18.6302L40.0586 19.2824" stroke="#323232" stroke-width="2" stroke-linecap="round" stroke-linejoin="round"/>
<path id="Path_3" d="M7.94099 29.7176L5.93359 30.3698" stroke="#323232" stroke-width="2" stroke-linecap="round" stroke-linejoin="round"/>
<path id="Path_4" d="M24 43.5V41.3889" stroke="#323232" stroke-width="2" stroke-linecap="round" stroke-linejoin="round"/>
<path id="Path_5" d="M24 5.5V7.61112" stroke="#323232" stroke-width="2" stroke-linecap="round" stroke-linejoin="round"/>
<path id="Path_6" d="M35.1569 39.8561L33.9173 38.1498" stroke="#323232" stroke-width="2" stroke-linecap="round" stroke-linejoin="round"/>
<path id="Path_7" d="M12.8431 9.14394L14.0827 10.8502" stroke="#323232" stroke-width="2" stroke-linecap="round" stroke-linejoin="round"/>
<path id="Path_8" d="M5.93359 18.6302L7.94099 19.2824" stroke="#323232" stroke-width="2" stroke-linecap="round" stroke-linejoin="round"/>
<path id="Path_9" d="M42.066 30.3698L40.0586 29.7176" stroke="#323232" stroke-width="2" stroke-linecap="round" stroke-linejoin="round"/>
<path id="Path_10" d="M35.1569 9.14394L33.9173 10.8502" stroke="#323232" stroke-width="2" stroke-linecap="round" stroke-linejoin="round"/>
<path id="Path_11" d="M12.8431 39.8561L14.0827 38.1498" stroke="#323232" stroke-width="2" stroke-linecap="round" stroke-linejoin="round"/>
</g>
</g>
</svg>
