<svg width="36" height="36" viewBox="0 0 36 36" fill="none" xmlns="http://www.w3.org/2000/svg">
<rect x="0.5" y="0.5" width="35" height="35" rx="17.5" stroke="#E9EBED"/>
<path d="M23.6601 28.6698C23.1301 28.6698 22.4501 28.4998 21.6001 27.9998L18.6101 26.2298C18.3001 26.0498 17.7001 26.0498 17.4001 26.2298L14.4001 27.9998C12.6301 29.0498 11.5901 28.6298 11.1201 28.2898C10.6601 27.9498 9.94012 27.0798 10.4101 25.0798L11.1201 22.0098C11.2001 21.6898 11.0401 21.1398 10.8001 20.8998L8.32012 18.4198C7.08012 17.1798 7.18012 16.1198 7.35012 15.5998C7.52012 15.0798 8.06012 14.1598 9.78012 13.8698L12.9701 13.3398C13.2701 13.2898 13.7001 12.9698 13.8301 12.6998L15.6001 9.16982C16.4001 7.55982 17.4501 7.31982 18.0001 7.31982C18.5501 7.31982 19.6001 7.55982 20.4001 9.16982L22.1601 12.6898C22.3001 12.9598 22.7301 13.2798 23.0301 13.3298L26.2201 13.8598C27.9501 14.1498 28.4901 15.0698 28.6501 15.5898C28.8101 16.1098 28.9101 17.1698 27.6801 18.4098L25.2001 20.8998C24.9601 21.1398 24.8101 21.6798 24.8801 22.0098L25.5901 25.0798C26.0501 27.0798 25.3401 27.9498 24.8801 28.2898C24.6301 28.4698 24.2301 28.6698 23.6601 28.6698ZM18.0001 24.5898C18.4901 24.5898 18.9801 24.7098 19.3701 24.9398L22.3601 26.7098C23.2301 27.2298 23.7801 27.2298 23.9901 27.0798C24.2001 26.9298 24.3501 26.3998 24.1301 25.4198L23.4201 22.3498C23.2301 21.5198 23.5401 20.4498 24.1401 19.8398L26.6201 17.3598C27.1101 16.8698 27.3301 16.3898 27.2301 16.0598C27.1201 15.7298 26.6601 15.4598 25.9801 15.3498L22.7901 14.8198C22.0201 14.6898 21.1801 14.0698 20.8301 13.3698L19.0701 9.84982C18.7501 9.20982 18.3501 8.82982 18.0001 8.82982C17.6501 8.82982 17.2501 9.20982 16.9401 9.84982L15.1701 13.3698C14.8201 14.0698 13.9801 14.6898 13.2101 14.8198L10.0301 15.3498C9.35012 15.4598 8.89012 15.7298 8.78012 16.0598C8.67012 16.3898 8.90012 16.8798 9.39012 17.3598L11.8701 19.8398C12.4701 20.4398 12.7801 21.5198 12.5901 22.3498L11.8801 25.4198C11.6501 26.4098 11.8101 26.9298 12.0201 27.0798C12.2301 27.2298 12.7701 27.2198 13.6501 26.7098L16.6401 24.9398C17.0201 24.7098 17.5101 24.5898 18.0001 24.5898Z" fill="#272727"/>
</svg>
